<svg id="Grupo_1393" data-name="Grupo 1393" xmlns="http://www.w3.org/2000/svg" width="33.758" height="33.757" viewBox="0 0 33.758 33.757">
  <path id="Caminho_2438" data-name="Caminho 2438" d="M827.66,165.148a3.122,3.122,0,1,0,3.122,3.123A3.126,3.126,0,0,0,827.66,165.148Z" transform="translate(-810.7 -151.416)" fill="#0a3f71"/>
  <path id="Caminho_2439" data-name="Caminho 2439" d="M831.289,160h-7.9a4.087,4.087,0,0,0-4.083,4.083v7.9a4.088,4.088,0,0,0,4.083,4.084h7.9a4.088,4.088,0,0,0,4.083-4.084v-7.9A4.087,4.087,0,0,0,831.289,160Zm-3.87,12.907a4.874,4.874,0,1,1,4.875-4.874A4.88,4.88,0,0,1,827.419,172.908Zm5.159-8.915a1.16,1.16,0,1,1,1.16-1.16A1.16,1.16,0,0,1,832.578,163.993Z" transform="translate(-810.459 -151.179)" fill="#0a3f71"/>
  <path id="Caminho_2440" data-name="Caminho 2440" d="M826.913,150.755a16.878,16.878,0,1,0,16.879,16.878A16.879,16.879,0,0,0,826.913,150.755Zm9.895,20.8a5.951,5.951,0,0,1-5.944,5.945h-7.9a5.951,5.951,0,0,1-5.944-5.945v-7.9a5.951,5.951,0,0,1,5.944-5.945h7.9a5.951,5.951,0,0,1,5.944,5.945Z" transform="translate(-810.034 -150.755)" fill="#0a3f71"/>
</svg>
