<svg xmlns="http://www.w3.org/2000/svg" width="167.358" height="33.976" viewBox="0 0 167.358 33.976">
  <g id="Layer_2" data-name="Layer 2" transform="translate(0)">
    <g id="Layer_1" data-name="Layer 1" transform="translate(0)">
      <g id="Layer_2-2" data-name="Layer 2">
        <g id="Camada_1" data-name="Camada 1">
          <path id="Caminho_2775" data-name="Caminho 2775" d="M119.971,8.576,115.393.64A.645.645,0,0,0,114.5.4a.66.66,0,0,0-.244.244l-4.145,7.149a.645.645,0,0,0,0,.653L124.674,33.7a.653.653,0,0,0,.566.33h8.266a.676.676,0,0,0,.669-.684.685.685,0,0,0-.087-.322Z" transform="translate(-23.491 -0.066)" fill="#fff"/>
          <path id="Caminho_2776" data-name="Caminho 2776" d="M150.774,20.708a10.61,10.61,0,0,0,7.259-10.083,10.886,10.886,0,0,0-.2-2.084A10.633,10.633,0,0,0,147.408,0H130.153a.653.653,0,0,0-.653.653.716.716,0,0,0,.087.33l4.176,7.236a.669.669,0,0,0,.566.322h13.079a2.084,2.084,0,0,1,0,4.168h-9.918a.653.653,0,0,0-.653.653.716.716,0,0,0,.087.33L148.439,33.63a.653.653,0,0,0,.566.33h8.29a.653.653,0,0,0,.653-.653.567.567,0,0,0-.087-.33Z" transform="translate(-27.649)" fill="#fff"/>
          <path id="Caminho_2777" data-name="Caminho 2777" d="M101.635,31.549l7.912,6.937a.669.669,0,0,0,.433.157h0A.645.645,0,0,0,110.64,38a.574.574,0,0,0-.087-.338l-8.919-15.47a.645.645,0,0,0-.889-.244.661.661,0,0,0-.244.244L91.575,37.644a.653.653,0,0,0,.236.9.668.668,0,0,0,.33.087h0a.668.668,0,0,0,.433-.157l7.912-6.921A.865.865,0,0,1,101.635,31.549Z" transform="translate(-19.532 -4.667)" fill="#fff"/>
          <path id="Caminho_2778" data-name="Caminho 2778" d="M186.59,0a16.98,16.98,0,1,0,16.98,16.98h0A16.98,16.98,0,0,0,186.59,0Zm0,25.348a8.376,8.376,0,1,1,8.376-8.376h0a8.368,8.368,0,0,1-8.368,8.368Z" transform="translate(-36.213)" fill="#fff"/>
          <path id="Caminho_2779" data-name="Caminho 2779" d="M3.742,14.853a3.3,3.3,0,0,1-1.526-.315,2.65,2.65,0,0,1-.991-.849A3.862,3.862,0,0,1,.683,12.47,6.1,6.1,0,0,1,.51,11.062V7.24h.96v3.822a5.044,5.044,0,0,0,.118,1.086,3.083,3.083,0,0,0,.362.935,1.864,1.864,0,0,0,.692.661A2.163,2.163,0,0,0,3.727,14a2.139,2.139,0,0,0,1.1-.252,1.9,1.9,0,0,0,.692-.676,2.894,2.894,0,0,0,.362-.936A4.9,4.9,0,0,0,6,11.062V7.24h.952v3.822a5.631,5.631,0,0,1-.173,1.494,3.689,3.689,0,0,1-.558,1.211,2.713,2.713,0,0,1-1,.786,3.3,3.3,0,0,1-1.479.3Z" transform="translate(-0.108 -1.546)" fill="#fff"/>
          <path id="Caminho_2780" data-name="Caminho 2780" d="M18.946,15.331h-.96V12.256a2.359,2.359,0,0,0-.275-1.282.944.944,0,0,0-.842-.409,1.5,1.5,0,0,0-1.022.409A2.179,2.179,0,0,0,15.2,12.02v3.311H14.29V12.256a2.281,2.281,0,0,0-.283-1.282.92.92,0,0,0-.786-.409,1.573,1.573,0,0,0-1.015.393A2.131,2.131,0,0,0,11.545,12v3.327H10.57V9.826h.849v1.2a2.643,2.643,0,0,1,.889-.952,2.359,2.359,0,0,1,1.227-.33,1.573,1.573,0,0,1,1.1.378,1.644,1.644,0,0,1,.511.967,2.831,2.831,0,0,1,.9-1,2.218,2.218,0,0,1,1.219-.346,1.691,1.691,0,0,1,.786.173,1.384,1.384,0,0,1,.511.488,2.241,2.241,0,0,1,.283.731,5.19,5.19,0,0,1,.079.92Z" transform="translate(-2.256 -2.079)" fill="#fff"/>
          <path id="Caminho_2781" data-name="Caminho 2781" d="M22.52,13.739a1.423,1.423,0,0,1,.307-.912,1.935,1.935,0,0,1,.857-.6,3.3,3.3,0,0,1,1.235-.212,5.214,5.214,0,0,1,.786.063,2.973,2.973,0,0,1,.739.173v-.4a1.274,1.274,0,0,0-.4-.991,1.486,1.486,0,0,0-1.085-.362,2.6,2.6,0,0,0-.881.157,5.71,5.71,0,0,0-.889.48l-.338-.661a4.562,4.562,0,0,1,1.077-.527,3.461,3.461,0,0,1,1.133-.189,2.359,2.359,0,0,1,1.675.59,2.1,2.1,0,0,1,.621,1.628v2.359a.362.362,0,0,0,.071.252.283.283,0,0,0,.228.087V15.4a1.266,1.266,0,0,1-.244,0h-.165a.637.637,0,0,1-.676-.566v-.354a2.36,2.36,0,0,1-.944.724,2.784,2.784,0,0,1-1.156.252,2.061,2.061,0,0,1-.991-.228,1.777,1.777,0,0,1-.684-.613A1.636,1.636,0,0,1,22.52,13.739Zm3.626.393a1.51,1.51,0,0,0,.2-.3.59.59,0,0,0,.079-.26v-.684a4.105,4.105,0,0,0-.692-.2,3.618,3.618,0,0,0-.716-.071,2.139,2.139,0,0,0-1.156.283.873.873,0,0,0-.44.786.983.983,0,0,0,.142.511,1.093,1.093,0,0,0,.425.4,1.353,1.353,0,0,0,.7.165,2.171,2.171,0,0,0,.834-.173A1.927,1.927,0,0,0,26.146,14.132Z" transform="translate(-4.807 -2.083)" fill="#fff"/>
          <path id="Caminho_2782" data-name="Caminho 2782" d="M36.363,15.445a2.879,2.879,0,0,1-1.148-.228,2.926,2.926,0,0,1-.889-.621,2.936,2.936,0,0,1,.582-4.483,2.768,2.768,0,0,1,1.471-.393,2.658,2.658,0,0,1,1.463.393,2.831,2.831,0,0,1,1.321,2.422v.2a.479.479,0,0,1,0,.149h-4.64a2.084,2.084,0,0,0,.3.983,1.9,1.9,0,0,0,.676.645,1.73,1.73,0,0,0,.9.244,1.9,1.9,0,0,0,.967-.26,1.424,1.424,0,0,0,.621-.669l.786.22a2.218,2.218,0,0,1-.543.724,2.548,2.548,0,0,1-.842.5A3.028,3.028,0,0,1,36.363,15.445Zm-1.872-3.193h3.791a2.037,2.037,0,0,0-.315-.952,1.817,1.817,0,0,0-.676-.637,1.88,1.88,0,0,0-1.825,0,1.817,1.817,0,0,0-.676.637,1.99,1.99,0,0,0-.3.944Z" transform="translate(-7.16 -2.075)" fill="#fff"/>
          <path id="Caminho_2783" data-name="Caminho 2783" d="M50.376,15.328H49.44V12.252a2.359,2.359,0,0,0-.275-1.282.952.952,0,0,0-.873-.409,1.5,1.5,0,0,0-1.022.409,2.178,2.178,0,0,0-.645,1.046v3.311h-.9V12.252a2.281,2.281,0,0,0-.283-1.282.92.92,0,0,0-.786-.409,1.573,1.573,0,0,0-1.015.393A2.131,2.131,0,0,0,42.975,12v3.327H42V9.822h.849v1.2a2.642,2.642,0,0,1,.889-.952,2.289,2.289,0,0,1,1.219-.33,1.573,1.573,0,0,1,1.109.378,1.644,1.644,0,0,1,.511.967,2.871,2.871,0,0,1,.928-1.015,2.218,2.218,0,0,1,1.219-.346,1.691,1.691,0,0,1,.786.173,1.384,1.384,0,0,1,.511.488,2.241,2.241,0,0,1,.283.731,5.191,5.191,0,0,1,.079.92Z" transform="translate(-8.966 -2.075)" fill="#fff"/>
          <path id="Caminho_2784" data-name="Caminho 2784" d="M57.5,15.454a2.2,2.2,0,0,1-1.211-.338,2.58,2.58,0,0,1-.842-.857v3.358H54.51v-7.8h.834v1.046a2.415,2.415,0,0,1,.857-.786,2.249,2.249,0,0,1,1.164-.315A2.454,2.454,0,0,1,58.419,10a2.485,2.485,0,0,1,.826.629,3.013,3.013,0,0,1,.551.912,2.973,2.973,0,0,1,.2,1.077,3.256,3.256,0,0,1-.315,1.439,2.7,2.7,0,0,1-.849,1.007A2.218,2.218,0,0,1,57.5,15.454Zm-.244-.786a1.573,1.573,0,0,0,.786-.173,1.722,1.722,0,0,0,.574-.464,1.959,1.959,0,0,0,.37-.661,2.359,2.359,0,0,0,0-1.573,1.927,1.927,0,0,0-.4-.653,2.021,2.021,0,0,0-.613-.448,1.754,1.754,0,0,0-.786-.165,1.518,1.518,0,0,0-.527.094,2.163,2.163,0,0,0-.519.267,1.982,1.982,0,0,0-.417.393,1.3,1.3,0,0,0-.22.472v1.573a2.548,2.548,0,0,0,.425.645,2.037,2.037,0,0,0,.621.472A1.573,1.573,0,0,0,57.255,14.668Z" transform="translate(-11.637 -2.084)" fill="#fff"/>
          <path id="Caminho_2785" data-name="Caminho 2785" d="M65.881,10.6a2.359,2.359,0,0,0-1.242.354,1.9,1.9,0,0,0-.787.96v3.421H62.94V9.829h.873v1.258a2.666,2.666,0,0,1,.786-.936,1.95,1.95,0,0,1,1-.4h.307Z" transform="translate(-13.437 -2.082)" fill="#fff"/>
          <path id="Caminho_2786" data-name="Caminho 2786" d="M70.054,15.447a2.879,2.879,0,0,1-1.148-.228,2.926,2.926,0,0,1-.889-.621,2.989,2.989,0,0,1-.425-3.445A2.808,2.808,0,0,1,70.069,9.73a2.658,2.658,0,0,1,1.463.393,2.831,2.831,0,0,1,1.321,2.422v.2a.48.48,0,0,1,0,.149h-4.64a2.029,2.029,0,0,0,.3.975,1.966,1.966,0,0,0,.676.645,1.809,1.809,0,0,0,.9.244,1.9,1.9,0,0,0,.967-.26,1.424,1.424,0,0,0,.621-.669l.786.22a2.045,2.045,0,0,1-.543.724,2.548,2.548,0,0,1-.842.5A3.028,3.028,0,0,1,70.054,15.447Zm-1.872-3.193h3.791a2.037,2.037,0,0,0-.315-.952,1.817,1.817,0,0,0-.676-.637,1.88,1.88,0,0,0-1.825,0,1.817,1.817,0,0,0-.676.637,1.99,1.99,0,0,0-.3.944Z" transform="translate(-14.353 -2.077)" fill="#fff"/>
          <path id="Caminho_2787" data-name="Caminho 2787" d="M77.484,15.448a3.854,3.854,0,0,1-1.3-.228,2.91,2.91,0,0,1-1.046-.684l.362-.661a3.012,3.012,0,0,0,.96.637,2.6,2.6,0,0,0,.975.189,1.762,1.762,0,0,0,.936-.212.676.676,0,0,0,.362-.637.558.558,0,0,0-.181-.456,1.573,1.573,0,0,0-.527-.244l-.787-.228a6.237,6.237,0,0,1-.967-.362,1.526,1.526,0,0,1-.6-.472,1.235,1.235,0,0,1-.2-.724,1.455,1.455,0,0,1,.275-.889,1.746,1.746,0,0,1,.786-.558,2.926,2.926,0,0,1,1.1-.189,3,3,0,0,1,1.117.189,2.541,2.541,0,0,1,.865.566l-.425.653a2.124,2.124,0,0,0-.724-.511,2.289,2.289,0,0,0-.889-.165,2.218,2.218,0,0,0-.558.071,1.062,1.062,0,0,0-.464.244.661.661,0,0,0-.181.488.582.582,0,0,0,.149.417,1.125,1.125,0,0,0,.425.26l.684.236c.417.118.786.236,1.093.354a1.754,1.754,0,0,1,.716.472,1.148,1.148,0,0,1,.26.786,1.439,1.439,0,0,1-.6,1.219,2.58,2.58,0,0,1-1.62.44Z" transform="translate(-16.042 -2.077)" fill="#fff"/>
          <path id="Caminho_2788" data-name="Caminho 2788" d="M81.74,13.73a1.423,1.423,0,0,1,.307-.912,1.974,1.974,0,0,1,.834-.6,3.3,3.3,0,0,1,1.235-.212,5.214,5.214,0,0,1,.786.063,2.972,2.972,0,0,1,.739.173v-.4a1.266,1.266,0,0,0-.385-.991,1.486,1.486,0,0,0-1.085-.362,2.6,2.6,0,0,0-.881.157,5.71,5.71,0,0,0-.889.48l-.338-.661a4.617,4.617,0,0,1,1.085-.527,3.429,3.429,0,0,1,1.156-.22,2.36,2.36,0,0,1,1.675.59,2.1,2.1,0,0,1,.621,1.628V14.3a.362.362,0,0,0,.071.252.283.283,0,0,0,.228.087v.724H86.49a.653.653,0,0,1-.5-.181.676.676,0,0,1-.181-.385v-.354a2.359,2.359,0,0,1-.944.724,2.823,2.823,0,0,1-1.164.26,2.061,2.061,0,0,1-.975-.228,1.777,1.777,0,0,1-.684-.613A1.644,1.644,0,0,1,81.74,13.73Zm3.626.393a1.512,1.512,0,0,0,.2-.3.59.59,0,0,0,.079-.26v-.684a4.105,4.105,0,0,0-.692-.2,3.618,3.618,0,0,0-.716-.071,2.139,2.139,0,0,0-1.156.283.873.873,0,0,0-.44.786.983.983,0,0,0,.142.511,1.172,1.172,0,0,0,.433.4,1.329,1.329,0,0,0,.692.165,2.171,2.171,0,0,0,.834-.173A1.927,1.927,0,0,0,85.366,14.124Z" transform="translate(-17.451 -2.075)" fill="#fff"/>
          <path id="Caminho_2789" data-name="Caminho 2789" d="M0,28.238a3.343,3.343,0,0,1,.322-1.431,2.721,2.721,0,0,1,.9-1.038,2.249,2.249,0,0,1,1.306-.362,2.116,2.116,0,0,1,1.2.354,2.619,2.619,0,0,1,.786.849V23.22h.991v6.7a.362.362,0,0,0,.071.252.315.315,0,0,0,.228.094v.724H5.395a.7.7,0,0,1-.488-.189.551.551,0,0,1-.189-.385v-.472a2.4,2.4,0,0,1-.889.842,2.36,2.36,0,0,1-1.148.307,2.36,2.36,0,0,1-1.109-.228,2.643,2.643,0,0,1-.786-.629A2.721,2.721,0,0,1,0,28.238Zm4.554.786V27.451a1.667,1.667,0,0,0-.409-.653,2.493,2.493,0,0,0-.645-.464,1.7,1.7,0,0,0-1.494,0,1.935,1.935,0,0,0-.574.464,2.359,2.359,0,0,0-.37.661,2.422,2.422,0,0,0-.126.786,2.242,2.242,0,0,0,.142.786,2.171,2.171,0,0,0,.409.653,1.887,1.887,0,0,0,.637.44,1.7,1.7,0,0,0,.786.157,1.447,1.447,0,0,0,.519-.094,2.037,2.037,0,0,0,.5-.26,1.644,1.644,0,0,0,.417-.393,1.188,1.188,0,0,0,.2-.48Z" transform="translate(0.002 -4.958)" fill="#fff"/>
          <path id="Caminho_2790" data-name="Caminho 2790" d="M11.3,31.674a2.713,2.713,0,0,1-1.14-.228,2.564,2.564,0,0,1-.881-.621,2.6,2.6,0,0,1-.574-.9,3,3,0,0,1,0-2.186,2.776,2.776,0,0,1,5.191,0,3.146,3.146,0,0,1,0,2.186,2.839,2.839,0,0,1-.574.912,2.6,2.6,0,0,1-.889.621A2.674,2.674,0,0,1,11.3,31.674Zm-1.84-2.839a2.139,2.139,0,0,0,.22,1.03,1.974,1.974,0,0,0,.661.731,1.683,1.683,0,0,0,.912.267,1.707,1.707,0,0,0,.936-.267,2.037,2.037,0,0,0,.669-.747,2.273,2.273,0,0,0,.252-1.038,2.123,2.123,0,0,0-.252-1.03,2.013,2.013,0,0,0-.669-.739,1.667,1.667,0,0,0-.889-.267,1.636,1.636,0,0,0-.928.283,2.061,2.061,0,0,0-.661.739,2.092,2.092,0,0,0-.252,1.038Z" transform="translate(-1.813 -5.539)" fill="#fff"/>
          <path id="Caminho_2791" data-name="Caminho 2791" d="M23.593,31.088a3.02,3.02,0,0,1-1.384-.33,3.586,3.586,0,0,1-1.125-.873,3.932,3.932,0,0,1-.747-1.235,4,4,0,0,1,.739-4.09,3.547,3.547,0,0,1,1.117-.842,3.641,3.641,0,0,1,3.217.157,2.9,2.9,0,0,1,1.07,1.2l-.731.511a2.187,2.187,0,0,0-.9-.983,2.54,2.54,0,0,0-1.266-.315,2.2,2.2,0,0,0-1.046.244,2.454,2.454,0,0,0-.786.661,2.934,2.934,0,0,0-.511.952,3.555,3.555,0,0,0-.173,1.109,3.359,3.359,0,0,0,.2,1.148,2.942,2.942,0,0,0,.558.944,2.705,2.705,0,0,0,.842.645,2.359,2.359,0,0,0,1.03.236,2.525,2.525,0,0,0,1.235-.33,3.791,3.791,0,0,0,1.109-1.015v.991A3.091,3.091,0,0,1,23.593,31.088Zm2.3-3.1H24.27v-.724h2.438v3.767h-.786Z" transform="translate(-4.284 -5)" fill="#fff"/>
          <path id="Caminho_2792" data-name="Caminho 2792" d="M33.111,26.844a2.312,2.312,0,0,0-1.243.362,1.9,1.9,0,0,0-.786.952v3.429H30.17V26.081h.873v1.258a2.737,2.737,0,0,1,.786-.936,1.856,1.856,0,0,1,1-.393h.307Z" transform="translate(-6.44 -5.554)" fill="#fff"/>
          <path id="Caminho_2793" data-name="Caminho 2793" d="M35,29.389V26.07h.936v3.146a2.249,2.249,0,0,0,.3,1.274,1,1,0,0,0,.881.417,1.864,1.864,0,0,0,.739-.157,2.014,2.014,0,0,0,.645-.472,2.187,2.187,0,0,0,.448-.731V26.086h.936v4.467a.346.346,0,0,0,.071.244.315.315,0,0,0,.228.094v.724h-.425a.653.653,0,0,1-.456-.165.535.535,0,0,1-.2-.409V30.4a2.5,2.5,0,0,1-.952.967,2.635,2.635,0,0,1-1.329.338,1.573,1.573,0,0,1-1.321-.582A2.886,2.886,0,0,1,35,29.389Z" transform="translate(-7.471 -5.566)" fill="#fff"/>
          <path id="Caminho_2794" data-name="Caminho 2794" d="M46.193,31.686a2.2,2.2,0,0,1-1.211-.338,2.509,2.509,0,0,1-.842-.857v3.374h-.92v-7.81h.834V27.1a2.493,2.493,0,0,1,.857-.786A2.359,2.359,0,0,1,46.075,26a2.454,2.454,0,0,1,1.054.236,2.619,2.619,0,0,1,.826.637,3,3,0,0,1,.747,1.982,3.256,3.256,0,0,1-.315,1.439,2.541,2.541,0,0,1-.873,1.038A2.249,2.249,0,0,1,46.193,31.686ZM45.91,30.9a1.573,1.573,0,0,0,.786-.173,1.644,1.644,0,0,0,.574-.464,1.919,1.919,0,0,0,.37-.653,2.423,2.423,0,0,0,.126-.786,2.242,2.242,0,0,0-.142-.786,2.06,2.06,0,0,0-.4-.653,2.021,2.021,0,0,0-.613-.448,1.683,1.683,0,0,0-.786-.165,1.518,1.518,0,0,0-.527.094,2.705,2.705,0,0,0-.519.267,1.974,1.974,0,0,0-.409.4,1.148,1.148,0,0,0-.228.472v1.573a2.737,2.737,0,0,0,.425.653,1.9,1.9,0,0,0,.621.464,1.573,1.573,0,0,0,.739.181Z" transform="translate(-9.227 -5.551)" fill="#fff"/>
          <path id="Caminho_2795" data-name="Caminho 2795" d="M53.979,31.665a2.713,2.713,0,0,1-1.14-.228,2.564,2.564,0,0,1-.881-.621,2.6,2.6,0,0,1-.574-.9,3,3,0,0,1,0-2.186,2.768,2.768,0,0,1,5.159-.118l.047.118a3.146,3.146,0,0,1,0,2.186,2.863,2.863,0,0,1-.582.912,2.6,2.6,0,0,1-.889.621A2.705,2.705,0,0,1,53.979,31.665Zm-1.84-2.839a2.045,2.045,0,0,0,.252,1.03,1.974,1.974,0,0,0,.661.731,1.754,1.754,0,0,0,1.856,0,2.053,2.053,0,0,0,.676-.747,2.171,2.171,0,0,0,.244-1.038,2.116,2.116,0,0,0-.244-1.03,2.037,2.037,0,0,0-.676-.739,1.7,1.7,0,0,0-1.856,0,2.061,2.061,0,0,0-.661.739A2.092,2.092,0,0,0,52.139,28.826Z" transform="translate(-10.926 -5.53)" fill="#fff"/>
        </g>
      </g>
    </g>
  </g>
</svg>
