<svg id="Layer_2" data-name="Layer 2" xmlns="http://www.w3.org/2000/svg" width="211.103" height="102.707" viewBox="0 0 211.103 102.707">
  <g id="Camada_1" data-name="Camada 1" transform="translate(0 0)">
    <path id="Caminho_2813" data-name="Caminho 2813" d="M0,128.151A6.686,6.686,0,0,1,.434,125.8a6.8,6.8,0,0,1,1.258-2.1,6.053,6.053,0,0,1,2.03-1.471,6.3,6.3,0,0,1,2.721-.559,5.884,5.884,0,0,1,3.119.75,5.148,5.148,0,0,1,1.964,2.059l-1.964,1.346a3.17,3.17,0,0,0-.861-1.169,3.288,3.288,0,0,0-1.14-.6,4.341,4.341,0,0,0-1.2-.176,3.457,3.457,0,0,0-1.67.382,3.678,3.678,0,0,0-1.184,1.015,4.244,4.244,0,0,0-.736,1.4,5.354,5.354,0,0,0-.235,1.545,5.1,5.1,0,0,0,.279,1.67,4.59,4.59,0,0,0,.78,1.42,3.788,3.788,0,0,0,1.214.971,3.376,3.376,0,0,0,1.559.36,3.884,3.884,0,0,0,1.236-.206,3.45,3.45,0,0,0,1.155-.64,2.942,2.942,0,0,0,.831-1.14l2.081,1.192a3.92,3.92,0,0,1-1.265,1.662,6.465,6.465,0,0,1-1.956,1.03,7.163,7.163,0,0,1-2.155.346,5.685,5.685,0,0,1-2.56-.574,6.348,6.348,0,0,1-1.993-1.552,7.245,7.245,0,0,1-1.272-2.17A6.62,6.62,0,0,1,0,128.151Z" transform="translate(0.013 -32.183)" fill="#fff"/>
    <path id="Caminho_2814" data-name="Caminho 2814" d="M30.819,134.889a6.024,6.024,0,0,1-2.6-.552,6.149,6.149,0,0,1-2.008-1.471,6.885,6.885,0,0,1-1.294-2.133,6.664,6.664,0,0,1-.463-2.442,6.546,6.546,0,0,1,.485-2.493,7.12,7.12,0,0,1,1.346-2.111,6.413,6.413,0,0,1,2.023-1.471,6.053,6.053,0,0,1,2.567-.537,5.788,5.788,0,0,1,2.589.566,6.2,6.2,0,0,1,1.993,1.53,7.208,7.208,0,0,1,1.294,2.133,6.73,6.73,0,0,1,.456,2.427,6.62,6.62,0,0,1-.478,2.479,6.884,6.884,0,0,1-1.331,2.118,6.458,6.458,0,0,1-2.023,1.471A6.119,6.119,0,0,1,30.819,134.889Zm-3.8-6.62a5.349,5.349,0,0,0,.258,1.641,4.487,4.487,0,0,0,.735,1.411,3.561,3.561,0,0,0,1.192.971,3.773,3.773,0,0,0,3.251,0,3.552,3.552,0,0,0,1.221-1.037,4.8,4.8,0,0,0,.736-1.419,5.244,5.244,0,0,0,.243-1.574,5.053,5.053,0,0,0-.265-1.625,4.508,4.508,0,0,0-.736-1.4,3.574,3.574,0,0,0-1.192-.978,3.537,3.537,0,0,0-1.6-.36,3.405,3.405,0,0,0-1.648.382,3.545,3.545,0,0,0-1.184,1,4.773,4.773,0,0,0-.736,1.4,5.266,5.266,0,0,0-.243,1.581Z" transform="translate(-6.454 -32.184)" fill="#fff"/>
    <path id="Caminho_2815" data-name="Caminho 2815" d="M54.508,126.428v8.392H52V121.75h1.986l6.759,8.613v-8.6h2.537V134.82H61.164Z" transform="translate(-13.741 -32.203)" fill="#fff"/>
    <path id="Caminho_2816" data-name="Caminho 2816" d="M87.928,123.986H83.75v10.841H81.228V123.986H77.05V121.78H87.928Z" transform="translate(-20.366 -32.211)" fill="#fff"/>
    <path id="Caminho_2817" data-name="Caminho 2817" d="M102.995,121.75h2.574l4.8,13.07h-2.611l-1.089-3.258h-4.8l-1.1,3.258H98.17Zm3.082,8.024-1.795-5.391-1.824,5.391Z" transform="translate(-25.952 -32.203)" fill="#fff"/>
    <path id="Caminho_2818" data-name="Caminho 2818" d="M134.752,131.451a2.942,2.942,0,0,1-.574,1.846,3.508,3.508,0,0,1-1.537,1.133,5.641,5.641,0,0,1-2.111.39H124.22V121.75h6.995a2.648,2.648,0,0,1,1.6.485,3.31,3.31,0,0,1,1.03,1.258,3.736,3.736,0,0,1,.353,1.589,3.612,3.612,0,0,1-.471,1.787,2.942,2.942,0,0,1-1.4,1.25,3.317,3.317,0,0,1,1.78,1.2,3.442,3.442,0,0,1,.655,2.133Zm-7.988-7.532v3.3h3.383a1.552,1.552,0,0,0,.772-.2,1.471,1.471,0,0,0,.559-.574,1.669,1.669,0,0,0,.213-.883,1.816,1.816,0,0,0-.191-.868,1.471,1.471,0,0,0-.515-.566,1.36,1.36,0,0,0-.736-.206Zm5.428,7.053a1.9,1.9,0,0,0-.206-.9,1.663,1.663,0,0,0-.544-.625,1.391,1.391,0,0,0-.78-.228h-3.9v3.442h3.766a1.56,1.56,0,0,0,.838-.228,1.7,1.7,0,0,0,.824-1.471Z" transform="translate(-32.842 -32.202)" fill="#fff"/>
    <path id="Caminho_2819" data-name="Caminho 2819" d="M148.75,134.82V121.75h2.537v13.07Z" transform="translate(-39.331 -32.203)" fill="#fff"/>
    <path id="Caminho_2820" data-name="Caminho 2820" d="M163.41,134.82V121.75h2.538v10.841h6.664V134.8Z" transform="translate(-43.208 -32.203)" fill="#fff"/>
    <path id="Caminho_2821" data-name="Caminho 2821" d="M185.53,134.82V121.75h2.552v13.07Z" transform="translate(-49.059 -32.203)" fill="#fff"/>
    <path id="Caminho_2822" data-name="Caminho 2822" d="M200.2,134.818v-13.07h4.744a6.774,6.774,0,0,1,3.575.875,5.523,5.523,0,0,1,2.148,2.354,7.354,7.354,0,0,1,.736,3.288,7.245,7.245,0,0,1-.787,3.457,5.648,5.648,0,0,1-2.243,2.287,6.892,6.892,0,0,1-3.413.809Zm8.627-6.553a5.208,5.208,0,0,0-.456-2.206,3.53,3.53,0,0,0-1.324-1.471,3.906,3.906,0,0,0-2.1-.544h-2.207v8.613h2.207a3.788,3.788,0,0,0,2.118-.559,3.6,3.6,0,0,0,1.316-1.545,5.281,5.281,0,0,0,.449-2.287Z" transform="translate(-52.939 -32.201)" fill="#fff"/>
    <path id="Caminho_2823" data-name="Caminho 2823" d="M228.038,121.75h2.582l4.8,13.07h-2.611l-1.089-3.258h-4.8l-1.1,3.258H223.22Zm3.089,8.024-1.795-5.391-1.809,5.391Z" transform="translate(-59.028 -32.203)" fill="#fff"/>
    <path id="Caminho_2824" data-name="Caminho 2824" d="M249.27,134.818v-13.07h4.751a6.767,6.767,0,0,1,3.567.875,5.538,5.538,0,0,1,2.155,2.354,7.451,7.451,0,0,1,.735,3.288,7.163,7.163,0,0,1-.787,3.457,5.627,5.627,0,0,1-2.207,2.287,6.906,6.906,0,0,1-3.413.809Zm8.627-6.553a5.106,5.106,0,0,0-.463-2.206,3.531,3.531,0,0,0-1.324-1.471,3.9,3.9,0,0,0-2.1-.544h-2.206v8.613h2.206a3.78,3.78,0,0,0,2.111-.559,3.559,3.559,0,0,0,1.316-1.545,5.28,5.28,0,0,0,.456-2.287Z" transform="translate(-65.918 -32.201)" fill="#fff"/>
    <path id="Caminho_2825" data-name="Caminho 2825" d="M283.744,132.591V134.8H274.69V121.75H283.6v2.206h-6.369V127.1h5.5v2.059h-5.5v3.405Z" transform="translate(-72.641 -32.203)" fill="#fff"/>
    <ellipse id="Elipse_81" data-name="Elipse 81" cx="9.459" cy="9.459" rx="9.459" ry="9.459" transform="translate(164.089 28.118)" fill="#fff"/>
    <path id="Caminho_2826" data-name="Caminho 2826" d="M27.944,39.442l9.142,15.821a1.471,1.471,0,0,1,0,1.471L21.031,84.683a1.471,1.471,0,0,1-1.258.736H1.466A1.471,1.471,0,0,1,.179,83.212L25.414,39.45a1.471,1.471,0,0,1,2.53-.007Z" transform="translate(0.018 -10.243)" fill="#fff"/>
    <path id="Caminho_2827" data-name="Caminho 2827" d="M65.844,19.041,55.724,1.478a1.471,1.471,0,0,0-2.508,0L44.029,17.291a1.471,1.471,0,0,0,0,1.471l32.215,55.9A1.471,1.471,0,0,0,77.5,75.4H95.794a1.471,1.471,0,0,0,1.28-2.206Z" transform="translate(-11.58 -0.205)" fill="#fff"/>
    <path id="Caminho_2828" data-name="Caminho 2828" d="M137,45.829A23.52,23.52,0,0,0,129.547,0H91.359a1.471,1.471,0,0,0-1.25,2.207l9.238,16a1.471,1.471,0,0,0,1.258.736h28.942a4.612,4.612,0,0,1,0,9.223H107.629a1.471,1.471,0,0,0-1.258,2.206l25.478,44.13a1.471,1.471,0,0,0,1.258.735h18.388a1.471,1.471,0,0,0,1.25-2.206Z" transform="translate(-23.768 0)" fill="#fff"/>
    <path id="Caminho_2829" data-name="Caminho 2829" d="M222.419,0a37.58,37.58,0,1,0,.007,0Zm0,56.111a18.535,18.535,0,1,1,18.535-18.535A18.535,18.535,0,0,1,222.419,56.111Z" transform="translate(-48.871 0)" fill="#fff"/>
  </g>
</svg>
