<svg id="Layer_2" data-name="Layer 2" xmlns="http://www.w3.org/2000/svg" width="148.852" height="72.421" viewBox="0 0 148.852 72.421">
  <g id="Camada_1" data-name="Camada 1" transform="translate(0 0)">
    <path id="Caminho_2830" data-name="Caminho 2830" d="M0,126.241a4.714,4.714,0,0,1,.306-1.654,4.8,4.8,0,0,1,.887-1.478,4.268,4.268,0,0,1,1.431-1.037,4.439,4.439,0,0,1,1.919-.394,4.149,4.149,0,0,1,2.2.529,3.63,3.63,0,0,1,1.385,1.452l-1.385.949a2.235,2.235,0,0,0-.607-.825,2.318,2.318,0,0,0-.8-.425,3.061,3.061,0,0,0-.845-.124,2.438,2.438,0,0,0-1.177.27,2.593,2.593,0,0,0-.835.716,2.992,2.992,0,0,0-.519.985,3.775,3.775,0,0,0-.166,1.089,3.594,3.594,0,0,0,.2,1.177,3.236,3.236,0,0,0,.55,1,2.671,2.671,0,0,0,.856.685,2.38,2.38,0,0,0,1.1.254,2.739,2.739,0,0,0,.871-.145,2.432,2.432,0,0,0,.814-.451,2.075,2.075,0,0,0,.586-.8l1.468.84a2.764,2.764,0,0,1-.892,1.172,4.559,4.559,0,0,1-1.38.726,5.051,5.051,0,0,1-1.52.244,4.009,4.009,0,0,1-1.8-.4,4.476,4.476,0,0,1-1.405-1.094,5.108,5.108,0,0,1-.9-1.53A4.667,4.667,0,0,1,0,126.241Z" transform="translate(0.009 -58.572)" fill="#fff"/>
    <path id="Caminho_2831" data-name="Caminho 2831" d="M28.941,130.994a4.247,4.247,0,0,1-1.836-.389,4.335,4.335,0,0,1-1.416-1.037,4.854,4.854,0,0,1-.913-1.5,4.7,4.7,0,0,1-.327-1.722,4.616,4.616,0,0,1,.342-1.758,5.02,5.02,0,0,1,.949-1.488,4.522,4.522,0,0,1,1.426-1.037,4.268,4.268,0,0,1,1.81-.379,4.082,4.082,0,0,1,1.826.4,4.372,4.372,0,0,1,1.405,1.079,5.082,5.082,0,0,1,.913,1.5,4.745,4.745,0,0,1,.322,1.711,4.668,4.668,0,0,1-.337,1.748,4.854,4.854,0,0,1-.939,1.494,4.553,4.553,0,0,1-1.426,1.037A4.314,4.314,0,0,1,28.941,130.994Zm-2.676-4.668a3.771,3.771,0,0,0,.182,1.157,3.163,3.163,0,0,0,.518,1,2.51,2.51,0,0,0,.84.685,2.661,2.661,0,0,0,2.292,0,2.5,2.5,0,0,0,.861-.731,3.387,3.387,0,0,0,.519-1,3.7,3.7,0,0,0,.171-1.11,3.563,3.563,0,0,0-.187-1.146,3.179,3.179,0,0,0-.519-.985,2.52,2.52,0,0,0-.84-.69,2.494,2.494,0,0,0-1.125-.254,2.4,2.4,0,0,0-1.162.27,2.5,2.5,0,0,0-.835.705,3.366,3.366,0,0,0-.519.985,3.713,3.713,0,0,0-.171,1.115Z" transform="translate(-11.761 -58.575)" fill="#fff"/>
    <path id="Caminho_2832" data-name="Caminho 2832" d="M53.768,125.048v5.917H52V121.75h1.4l4.766,6.073V121.76h1.789v9.205H58.462Z" transform="translate(-25.023 -58.609)" fill="#fff"/>
    <path id="Caminho_2833" data-name="Caminho 2833" d="M84.72,123.336H81.775v7.644H80v-7.644H77.05V121.78h7.67Z" transform="translate(-37.081 -58.623)" fill="#fff"/>
    <path id="Caminho_2834" data-name="Caminho 2834" d="M101.572,121.75h1.815l3.387,9.216h-1.841l-.768-2.3h-3.381l-.773,2.3H98.17Zm2.173,5.658-1.265-3.8-1.286,3.8Z" transform="translate(-47.248 -58.609)" fill="#fff"/>
    <path id="Caminho_2835" data-name="Caminho 2835" d="M131.647,128.59a2.074,2.074,0,0,1-.4,1.3,2.474,2.474,0,0,1-1.084.8,3.978,3.978,0,0,1-1.488.275h-4.45v-9.216h4.932a1.867,1.867,0,0,1,1.125.342,2.334,2.334,0,0,1,.726.887,2.635,2.635,0,0,1,.249,1.12,2.546,2.546,0,0,1-.332,1.26,2.074,2.074,0,0,1-.991.882,2.339,2.339,0,0,1,1.255.845,2.427,2.427,0,0,1,.462,1.5Zm-5.632-5.311V125.6H128.4a1.094,1.094,0,0,0,.545-.14,1.037,1.037,0,0,0,.394-.4,1.177,1.177,0,0,0,.15-.622,1.281,1.281,0,0,0-.135-.612,1.037,1.037,0,0,0-.363-.4.959.959,0,0,0-.519-.145Zm3.827,4.973a1.338,1.338,0,0,0-.145-.633,1.172,1.172,0,0,0-.384-.441.98.98,0,0,0-.55-.161h-2.749v2.427h2.655a1.1,1.1,0,0,0,.591-.161,1.2,1.2,0,0,0,.581-1.037Z" transform="translate(-59.788 -58.608)" fill="#fff"/>
    <path id="Caminho_2836" data-name="Caminho 2836" d="M148.75,130.966V121.75h1.789v9.216Z" transform="translate(-71.597 -58.609)" fill="#fff"/>
    <path id="Caminho_2837" data-name="Caminho 2837" d="M163.41,130.966V121.75H165.2v7.644h4.7v1.556Z" transform="translate(-78.654 -58.609)" fill="#fff"/>
    <path id="Caminho_2838" data-name="Caminho 2838" d="M185.53,130.966V121.75h1.8v9.216Z" transform="translate(-89.302 -58.609)" fill="#fff"/>
    <path id="Caminho_2839" data-name="Caminho 2839" d="M200.2,130.963v-9.216h3.345a4.776,4.776,0,0,1,2.52.617,3.9,3.9,0,0,1,1.514,1.66,5.186,5.186,0,0,1,.519,2.318,5.108,5.108,0,0,1-.555,2.437,3.983,3.983,0,0,1-1.582,1.613,4.86,4.86,0,0,1-2.406.57Zm6.083-4.621a3.672,3.672,0,0,0-.322-1.556,2.489,2.489,0,0,0-.934-1.037,2.754,2.754,0,0,0-1.483-.384h-1.556v6.073h1.556a2.671,2.671,0,0,0,1.494-.394,2.541,2.541,0,0,0,.928-1.089,3.724,3.724,0,0,0,.316-1.613Z" transform="translate(-96.364 -58.606)" fill="#fff"/>
    <path id="Caminho_2840" data-name="Caminho 2840" d="M226.617,121.75h1.82l3.387,9.216h-1.841l-.768-2.3h-3.381l-.773,2.3H223.22Zm2.178,5.658-1.265-3.8-1.276,3.8Z" transform="translate(-107.446 -58.609)" fill="#fff"/>
    <path id="Caminho_2841" data-name="Caminho 2841" d="M249.27,130.963v-9.216h3.35a4.771,4.771,0,0,1,2.515.617,3.905,3.905,0,0,1,1.52,1.66,5.253,5.253,0,0,1,.519,2.318,5.051,5.051,0,0,1-.555,2.437,3.967,3.967,0,0,1-1.556,1.613,4.87,4.87,0,0,1-2.406.57Zm6.083-4.621a3.6,3.6,0,0,0-.327-1.556,2.489,2.489,0,0,0-.933-1.037,2.749,2.749,0,0,0-1.478-.384h-1.556v6.073h1.556a2.666,2.666,0,0,0,1.488-.394,2.51,2.51,0,0,0,.928-1.089,3.723,3.723,0,0,0,.322-1.613Z" transform="translate(-119.986 -58.606)" fill="#fff"/>
    <path id="Caminho_2842" data-name="Caminho 2842" d="M281.074,129.394v1.556H274.69v-9.2h6.286v1.556h-4.491v2.22h3.879v1.452h-3.879v2.4Z" transform="translate(-132.223 -58.609)" fill="#fff"/>
    <ellipse id="Elipse_82" data-name="Elipse 82" cx="6.669" cy="6.669" rx="6.669" ry="6.669" transform="translate(115.702 19.827)" fill="#fff"/>
    <path id="Caminho_2843" data-name="Caminho 2843" d="M19.7,39.231l6.446,11.155a1.037,1.037,0,0,1,0,1.037L14.824,71.131a1.037,1.037,0,0,1-.887.519H1.029a1.037,1.037,0,0,1-.908-1.556L17.915,39.236a1.037,1.037,0,0,1,1.784-.005Z" transform="translate(0.018 -18.642)" fill="#fff"/>
    <path id="Caminho_2844" data-name="Caminho 2844" d="M59.353,13.655,52.217,1.27a1.037,1.037,0,0,0-1.768,0l-6.477,11.15a1.037,1.037,0,0,0,0,1.037L66.686,52.872a1.037,1.037,0,0,0,.887.519h12.9a1.037,1.037,0,0,0,.9-1.556Z" transform="translate(-21.091 -0.373)" fill="#fff"/>
    <path id="Caminho_2845" data-name="Caminho 2845" d="M123.113,32.315A16.584,16.584,0,0,0,117.859,0H90.933a1.037,1.037,0,0,0-.882,1.556l6.514,11.285a1.037,1.037,0,0,0,.887.519h20.407a3.252,3.252,0,1,1,0,6.5H102.4a1.037,1.037,0,0,0-.887,1.556l17.965,31.117a1.037,1.037,0,0,0,.887.519h12.965a1.037,1.037,0,0,0,.882-1.556Z" transform="translate(-43.273 0)" fill="#fff"/>
    <path id="Caminho_2846" data-name="Caminho 2846" d="M211.332,0a26.5,26.5,0,1,0,.005,0Zm0,39.565A13.069,13.069,0,1,1,224.4,26.5,13.069,13.069,0,0,1,211.332,39.565Z" transform="translate(-88.96 0)" fill="#fff"/>
  </g>
</svg>
